<?xml version="1.0" standalone="no"?><svg xmlns="http://www.w3.org/2000/svg" viewBox="0 0 1440 320"><path fill="#000b76" fill-opacity="1" d="M0,288L30,272C60,256,120,224,180,229.3C240,235,300,277,360,293.3C420,309,480,299,540,277.3C600,256,660,224,720,192C780,160,840,128,900,144C960,160,1020,224,1080,224C1140,224,1200,160,1260,112C1320,64,1380,32,1410,16L1440,0L1440,0L1410,0C1380,0,1320,0,1260,0C1200,0,1140,0,1080,0C1020,0,960,0,900,0C840,0,780,0,720,0C660,0,600,0,540,0C480,0,420,0,360,0C300,0,240,0,180,0C120,0,60,0,30,0L0,0Z"></path></svg>